<?xml version="1.0" encoding="UTF-8" standalone="no"?><!DOCTYPE svg PUBLIC "-//W3C//DTD SVG 1.1//EN" "http://www.w3.org/Graphics/SVG/1.1/DTD/svg11.dtd"><svg width="100%" height="100%" viewBox="0 0 1862 2898" version="1.1" xmlns="http://www.w3.org/2000/svg" xmlns:xlink="http://www.w3.org/1999/xlink" xml:space="preserve" xmlns:serif="http://www.serif.com/" style="fill-rule:evenodd;clip-rule:evenodd;stroke-linejoin:round;stroke-miterlimit:2;"><path id="calculator" d="M1861.07,0l-1861.07,0l0,2897.92l1861.07,0l0,-2897.92Zm-1401.88,2447.27l-291.642,0l0,250.467l291.642,0l0,-250.467Zm404.166,0l-291.641,0l0,250.467l291.641,0l0,-250.467Zm404.167,0l-291.641,0l0,250.467l291.641,0l0,-250.467Zm416.667,0l-291.642,0l0,250.467l291.642,0l0,-250.467Zm-1225,-362.5l-291.642,0l0,250.467l291.642,0l0,-250.467Zm404.166,0l-291.641,0l0,250.467l291.641,0l0,-250.467Zm404.167,0l-291.641,0l0,250.467l291.641,0l0,-250.467Zm416.667,0l-291.642,0l0,250.467l291.642,0l0,-250.467Zm-1225,-366.667l-291.642,0l0,250.467l291.642,0l0,-250.467Zm404.166,0l-291.641,0l0,250.467l291.641,0l0,-250.467Zm404.167,0l-291.641,0l0,250.467l291.641,0l0,-250.467Zm416.667,0l-291.642,0l0,250.467l291.642,0l0,-250.467Zm-1225,-370.833l-291.642,0l0,250.467l291.642,0l0,-250.467Zm404.166,0l-291.641,0l0,250.467l291.641,0l0,-250.467Zm404.167,0l-291.641,0l0,250.467l291.641,0l0,-250.467Zm416.667,0l-291.642,0l0,250.467l291.642,0l0,-250.467Zm-1225,-366.667l-291.642,0l0,250.467l291.642,0l0,-250.467Zm404.166,0l-291.641,0l0,250.467l291.641,0l0,-250.467Zm404.167,0l-291.641,0l0,250.467l291.641,0l0,-250.467Zm416.667,0l-291.642,0l0,250.467l291.642,0l0,-250.467Z" style="fill:#3c3c3c;"/></svg>